<?xml version="1.0" encoding="UTF-8"?>
<!DOCTYPE svg PUBLIC "-//W3C//DTD SVG 1.1//EN" "http://www.w3.org/Graphics/SVG/1.1/DTD/svg11.dtd">
<!-- Creator: CorelDRAW 2021 (64-Bit Not for commercial use) -->
<svg xmlns="http://www.w3.org/2000/svg" xml:space="preserve" width="116.3mm" height="67.1384mm" version="1.1" style="shape-rendering:geometricPrecision; text-rendering:geometricPrecision; image-rendering:optimizeQuality; fill-rule:evenodd; clip-rule:evenodd"
viewBox="0 0 8933.47 5157.19"
 xmlns:xlink="http://www.w3.org/1999/xlink"
 xmlns:xodm="http://www.corel.com/coreldraw/odm/2003">
 <defs>
  <style type="text/css">
   <![CDATA[
    .fil0 {fill:#325939}
    .fil2 {fill:#38683E}
    .fil4 {fill:#417943}
    .fil5 {fill:#498C48}
    .fil3 {fill:#54A14C}
    .fil1 {fill:#5DBA51}
   ]]>
  </style>
 </defs>
 <g id="Layer_x0020_1">
  <metadata id="CorelCorpID_0Corel-Layer"/>
  <g id="_1988995092000">
   <path class="fil0" d="M7393.89 2872.12c82.34,16.9 135.19,54.95 218.49,91.16 59.49,25.83 134.48,56.81 204.38,86.96l-14.93 211.99 -57.76 -67.06c-21.65,-30.44 -14.3,-24.06 -40.67,-54.45 -94.01,-108.32 -128.03,-147.38 -253.11,-227.8l-56.4 -40.8zm209.74 -1190.97c-23.56,-21.44 -7.24,-3.52 -29.35,-26.46 -47.16,-49.02 -26.78,-24.22 -51.74,-82.1 93,36.33 105.63,50.14 125.58,149.16l-44.48 -40.6zm-209.74 1190.97c-263.96,-62.76 -582.39,-270.78 -659.78,-297.42 26.42,113.35 134.19,200.18 199.84,258.22 63.08,55.72 182.41,145.84 262.87,198.77 143.8,94.61 423.8,280.66 584.61,331.8l-33.44 160.49c-148.59,-166.13 -235.7,-291.27 -451.47,-399.24 -143.5,-71.78 -300.22,-117.67 -434.3,-201.02 -70.22,-43.66 -73.71,-65.04 -145.54,-97.27 39.3,212.13 511.28,533.16 710.66,648.13 66.13,38.15 249.22,121.33 290.05,166.81l-28.19 101.49c-9.43,-5.11 -14.75,-15.12 -16.29,-11.83l-194.29 -192.84c-76.58,-57.7 -184.37,-99.98 -286.32,-137.57 -231.19,-85.28 -424.83,-277.46 -465.63,-293.59 -96.64,-38.16 86.66,218.04 111.22,245.16 68.31,75.49 127.8,149.07 232.59,209.67 114.63,66.27 462.85,250.31 582.57,282.32l-38.59 140.95c-218.28,-280.46 -488.2,-292.7 -746.31,-490.61 -53.98,-41.4 -50.64,-62.11 -106.56,-83.1 -23.21,219.78 146.64,358.76 295.68,433.29 81.85,40.93 157.58,87.05 238.16,126.64 73.67,36.19 205.49,71.9 273.05,112.38 -11.99,66.22 -20.17,91.89 -60.51,131.44 -140.73,-199.18 -281.09,-188.55 -479.62,-303.41l-105.29 -87.12c-41.03,-33.15 -1.34,-10.98 -47.62,-31.03 -54.42,143.32 115.97,279.26 206.55,333.8l273.69 170.01c53.06,24.79 72.07,14.86 108.31,34.46 -159.42,225.04 -235.07,387.25 -482.05,531.71 -41.06,24.01 -72.01,41.59 -98.11,76.38 -127.24,169.67 121.01,293.15 542.09,-402.02l100.73 -187.37c29.42,-45.57 10.33,-23.94 46.18,-54.97 70.17,148.88 281.21,283.64 523.41,218.31 167.54,-45.21 394.36,-228.78 431.71,-357.16 -142.16,37.75 -184.75,185.91 -436.7,132.55 -159,-33.68 -304.41,-81.8 -475.21,-100.22l41.26 -122.58c191.18,90.32 445.56,217.9 701.6,116.67 153.14,-60.55 405.33,-294.11 436.46,-451.27 -169.31,52.25 -202.79,206.13 -457.18,226.19 -229.39,18.11 -370.58,-67.97 -619.73,-31.76l28.05 -133.17c271.53,11.84 545.5,61.34 800.24,-115.29 90.55,-62.76 425.09,-401.38 348.2,-594.81 -3.68,2.8 -9.02,3.02 -10.5,9.06l-177.76 226.21c-237.62,232.1 -523.41,111.7 -927.82,365.97 50,-267.31 63,-99.68 397.61,-241.39 130.82,-55.41 318.19,-183.64 382.64,-253.2 124.1,-133.96 184.32,-157.77 275.22,-360.38 60.35,-134.52 151.77,-408.74 60.61,-555.6 -95.91,85.8 -41.48,369.98 -417.51,661.3 -189.32,146.66 -493.57,280.89 -616.26,482.8 -28.9,-55.18 -7.02,-131.35 3.66,-192.57 378.71,-177.53 397.48,-122.83 679.09,-493.16 88.41,-116.27 149.84,-228.22 202.9,-393.61 36.85,-114.9 82.46,-394.04 13.5,-500.15 -87.53,66.47 1.18,446 -605.36,1005.19 -52.66,48.55 -92.18,77.05 -141.98,127.42 -50,50.54 -66.2,88.3 -141.73,143.25 31.05,-339.1 33.21,-146.05 281.87,-349.3 379.45,-310.15 646.08,-734.48 517.71,-1299.98 -42.06,32.58 -6.54,-13.53 -28.65,34.24 -75.32,162.97 19.81,321.21 -296.9,708.05l-345.2 443.59c-34.83,49.18 -66.11,118.87 -107.38,165.28l-16.79 -255.49c249.72,-131.94 384.98,-345.45 496.81,-614.9 68.99,-166.21 183.69,-825.06 16.63,-943.08 -26.72,143.82 -13.1,281.82 -56.14,442.16 -35.1,130.69 -85.36,240.11 -144.43,355.72 -177.87,348.13 -176.35,315.58 -319.74,699.54l-40.84 -262.36c185.89,-241.45 226.12,-166.2 384.18,-548.47 70.13,-169.62 178.31,-643.24 28.63,-771.82 -45.3,60.68 -52.39,235.74 -73.36,322.83 -25.58,106.25 -81.78,200.59 -129.26,294.64 -106.29,210.56 -155.02,360.17 -232.21,599.29 -119.67,-436.84 0.48,-176.08 182.14,-708.35 45.41,-133.08 150.72,-792.02 -40.89,-880.64 -32.22,85.71 -4.72,228.96 -24.44,337.32 -58.04,319.42 -158.18,476 -213.36,884.42 -22.05,-123.92 -91.23,-211.52 -31.71,-342.07 91.91,-201.68 234.28,-860.89 120.9,-1070.86 -47.5,-87.96 -12.34,-38.89 -69.88,-68.81 -32.55,178.42 -86.09,748.49 -154.75,878.03 -35.57,-322.4 -351.1,-990.97 -547.24,-1078.23l291.89 798.61c-106.43,-96.86 -360.58,-324.65 -562.17,-375.4 4.41,108.52 229.85,302.46 312.5,400.5l122.85 142.68c-106.54,-54.91 -213.77,-143.14 -304.47,-210.95 -79.46,-59.41 -212.81,-182.07 -303.98,-211.06 68.59,289 519.67,558.72 714.53,780.93 -179.05,-73.83 -422.73,-160.93 -567.44,-297.68 -50.45,-47.71 -97.48,-109.65 -187.34,-132.4 47.86,226.03 327.19,392.68 505.63,506.63 205.95,131.51 396.4,268.49 637.54,358.42l39.8 176.83c-171.51,-156.47 -224.97,-247.38 -525.64,-322.53 -112.02,-27.99 -237.73,-45.73 -344.16,-76.78 -111.63,-32.58 -197.36,-117.65 -303.2,-132.76 16.68,208.4 731.3,454.61 965.55,546.29 213.95,83.74 227.01,29.08 264.38,262.36 -188.79,-133.99 -231.33,-226.76 -493.82,-301 -100.36,-28.4 -204.22,-45.46 -308.69,-76.78 -144.71,-43.41 -182.83,-118.15 -262.41,-144.48 -21.17,313.45 791.61,520.65 1084.3,625.69 8.63,69.87 38.45,181.23 15.26,231.73 -279.76,-251.59 -425.76,-305.11 -802.56,-362.66 -124.65,-19.03 -238.16,-71.41 -334.3,-80.35 79.44,171.38 332.46,240.71 532.3,324.15 203.97,85.19 415.49,146.32 619.6,222.48l-1.11 209.72c-79.1,-72.31 -101.91,-130.35 -209.04,-206.92 -182.46,-130.42 -444.2,-158.45 -651.9,-232.51 -90.75,-32.35 -240.66,-120.83 -302.24,-131.05 18.28,213.41 583.52,377.64 725.27,495.38z"/>
   <path class="fil1" d="M1539.58 2872.12c-82.34,16.9 -135.19,54.95 -218.49,91.16 -59.49,25.83 -134.48,56.81 -204.38,86.96l14.93 211.99 57.76 -67.06c21.65,-30.44 14.3,-24.06 40.67,-54.45 94.01,-108.32 128.03,-147.38 253.11,-227.8l56.4 -40.8zm-209.74 -1190.97c23.56,-21.44 7.24,-3.52 29.35,-26.46 47.16,-49.02 26.78,-24.22 51.74,-82.1 -93,36.33 -105.63,50.14 -125.58,149.16l44.48 -40.6zm209.74 1190.97c263.96,-62.76 582.39,-270.78 659.78,-297.42 -26.42,113.35 -134.19,200.18 -199.84,258.22 -63.08,55.72 -182.41,145.84 -262.87,198.77 -143.8,94.61 -423.8,280.66 -584.61,331.8l33.44 160.49c148.59,-166.13 235.7,-291.27 451.47,-399.24 143.5,-71.78 300.22,-117.67 434.3,-201.02 70.22,-43.66 73.71,-65.04 145.54,-97.27 -39.3,212.13 -511.28,533.16 -710.66,648.13 -66.13,38.15 -249.22,121.33 -290.05,166.81l28.19 101.49c9.43,-5.11 14.75,-15.12 16.29,-11.83l194.29 -192.84c76.58,-57.7 184.37,-99.98 286.32,-137.57 231.19,-85.28 424.83,-277.46 465.63,-293.59 96.64,-38.16 -86.66,218.04 -111.22,245.16 -68.31,75.49 -127.8,149.07 -232.59,209.67 -114.63,66.27 -462.85,250.31 -582.57,282.32l38.59 140.95c218.28,-280.46 488.2,-292.7 746.31,-490.61 53.98,-41.4 50.64,-62.11 106.56,-83.1 23.21,219.78 -146.64,358.76 -295.68,433.29 -81.85,40.93 -157.58,87.05 -238.16,126.64 -73.67,36.19 -205.49,71.9 -273.05,112.38 11.99,66.22 20.17,91.89 60.51,131.44 140.73,-199.18 281.09,-188.55 479.62,-303.41l105.29 -87.12c41.03,-33.15 1.34,-10.98 47.62,-31.03 54.42,143.32 -115.97,279.26 -206.55,333.8l-273.69 170.01c-53.06,24.79 -72.07,14.86 -108.31,34.46 159.42,225.04 235.07,387.25 482.05,531.71 41.06,24.01 72.01,41.59 98.11,76.38 127.24,169.67 -121.01,293.15 -542.09,-402.02l-100.73 -187.37c-29.42,-45.57 -10.33,-23.94 -46.18,-54.97 -70.17,148.88 -281.21,283.64 -523.41,218.31 -167.54,-45.21 -394.36,-228.78 -431.71,-357.16 142.16,37.75 184.75,185.91 436.7,132.55 159,-33.68 304.41,-81.8 475.21,-100.22l-41.26 -122.58c-191.18,90.32 -445.56,217.9 -701.6,116.67 -153.14,-60.55 -405.33,-294.11 -436.46,-451.27 169.31,52.25 202.79,206.13 457.18,226.19 229.39,18.11 370.58,-67.97 619.73,-31.76l-28.05 -133.17c-271.53,11.84 -545.5,61.34 -800.24,-115.29 -90.55,-62.76 -425.09,-401.38 -348.2,-594.81 3.68,2.8 9.02,3.02 10.5,9.06l177.76 226.21c237.62,232.1 523.41,111.7 927.82,365.97 -50,-267.31 -63,-99.68 -397.61,-241.39 -130.82,-55.41 -318.19,-183.64 -382.64,-253.2 -124.1,-133.96 -184.32,-157.77 -275.22,-360.38 -60.35,-134.52 -151.77,-408.74 -60.61,-555.6 95.91,85.8 41.48,369.98 417.51,661.3 189.32,146.66 493.57,280.89 616.26,482.8 28.9,-55.18 7.02,-131.35 -3.66,-192.57 -378.71,-177.53 -397.48,-122.83 -679.09,-493.16 -88.41,-116.27 -149.84,-228.22 -202.9,-393.61 -36.85,-114.9 -82.46,-394.04 -13.5,-500.15 87.53,66.47 -1.18,446 605.36,1005.19 52.66,48.55 92.18,77.05 141.98,127.42 50,50.54 66.2,88.3 141.73,143.25 -31.05,-339.1 -33.21,-146.05 -281.87,-349.3 -379.45,-310.15 -646.08,-734.48 -517.71,-1299.98 42.06,32.58 6.54,-13.53 28.65,34.24 75.32,162.97 -19.81,321.21 296.9,708.05l345.2 443.59c34.83,49.18 66.11,118.87 107.38,165.28l16.79 -255.49c-249.72,-131.94 -384.98,-345.45 -496.81,-614.9 -68.99,-166.21 -183.69,-825.06 -16.63,-943.08 26.72,143.82 13.1,281.82 56.14,442.16 35.1,130.69 85.36,240.11 144.43,355.72 177.87,348.13 176.35,315.58 319.74,699.54l40.84 -262.36c-185.89,-241.45 -226.12,-166.2 -384.18,-548.47 -70.13,-169.62 -178.31,-643.24 -28.63,-771.82 45.3,60.68 52.39,235.74 73.36,322.83 25.58,106.25 81.78,200.59 129.26,294.64 106.29,210.56 155.02,360.17 232.21,599.29 119.67,-436.84 -0.48,-176.08 -182.14,-708.35 -45.41,-133.08 -150.72,-792.02 40.89,-880.64 32.22,85.71 4.72,228.96 24.44,337.32 58.04,319.42 158.18,476 213.36,884.42 22.05,-123.92 91.23,-211.52 31.71,-342.07 -91.91,-201.68 -234.28,-860.89 -120.9,-1070.86 47.5,-87.96 12.34,-38.89 69.88,-68.81 32.55,178.42 86.09,748.49 154.75,878.03 35.57,-322.4 351.1,-990.97 547.24,-1078.23l-291.89 798.61c106.43,-96.86 360.58,-324.65 562.17,-375.4 -4.41,108.52 -229.85,302.46 -312.5,400.5l-122.85 142.68c106.54,-54.91 213.77,-143.14 304.47,-210.95 79.46,-59.41 212.81,-182.07 303.98,-211.06 -68.59,289 -519.67,558.72 -714.53,780.93 179.05,-73.83 422.73,-160.93 567.44,-297.68 50.45,-47.71 97.48,-109.65 187.34,-132.4 -47.86,226.03 -327.19,392.68 -505.63,506.63 -205.95,131.51 -396.4,268.49 -637.54,358.42l-39.8 176.83c171.51,-156.47 224.97,-247.38 525.64,-322.53 112.02,-27.99 237.73,-45.73 344.16,-76.78 111.63,-32.58 197.36,-117.65 303.2,-132.76 -16.68,208.4 -731.3,454.61 -965.55,546.29 -213.95,83.74 -227.01,29.08 -264.38,262.36 188.79,-133.99 231.33,-226.76 493.82,-301 100.36,-28.4 204.22,-45.46 308.69,-76.78 144.71,-43.41 182.83,-118.15 262.41,-144.48 21.17,313.45 -791.61,520.65 -1084.3,625.69 -8.63,69.87 -38.45,181.23 -15.26,231.73 279.76,-251.59 425.76,-305.11 802.56,-362.66 124.65,-19.03 238.16,-71.41 334.3,-80.35 -79.44,171.38 -332.46,240.71 -532.3,324.15 -203.97,85.19 -415.49,146.32 -619.6,222.48l1.11 209.72c79.1,-72.31 101.91,-130.35 209.04,-206.92 182.46,-130.42 444.2,-158.45 651.9,-232.51 90.75,-32.35 240.66,-120.83 302.24,-131.05 -18.28,213.41 -583.52,377.64 -725.27,495.38z"/>
   <path class="fil2" d="M6413.6 3785.78c-144.99,-199.29 -57.65,-829.34 72.27,-1012.92 13.79,226.89 -13.47,808.26 -72.27,1012.92zm9.04 -1005.45c-100.7,253.11 -118.28,439.68 -131.44,737.27 -62.53,-147.36 -236.66,-582.43 -179.51,-740.41 38.46,-106.24 148.16,-159.54 220.36,-280.26 75.35,-125.98 39.54,-264.35 28.76,-413.67 83.7,125.15 85.03,145.62 103.18,324.21 21.95,215.97 31.49,189.8 -41.35,372.85zm-185.21 -2533.7c39.39,-211.99 -55.08,-126.76 -85.57,-111.83 -4.79,-83.32 -4.84,-85.62 -39.69,-134.8 -102.97,41 -52.04,65.56 -44.11,150.93 9.18,98.93 3.48,-26.72 -18.17,69.01 -31.92,141.03 139,182.33 150.68,378.56 -63.9,-87.98 -59.29,-217.95 -190.86,-211.11 -81.28,132.83 148.02,271.38 191.64,327.24 62.33,79.85 62.81,343 82.15,465.85 -25.22,-19.31 -11.93,-7.45 -34.78,-31.03l-54.98 -81.98c-23.54,-52.4 -27.24,-77.71 -57.27,-134.19 -119.35,-224.51 -442.27,-502.72 -722.58,-316.47 -7.7,125.56 155.02,336.51 221.58,393.7 158.77,136.48 293.57,77.17 499.04,120.4 175.85,37.01 177.53,230.12 202.02,408.7 24.42,178.32 58.52,368.3 79.71,543.29 -76.53,-67.54 -67.73,-104.86 -112.99,-202.23 -72.79,-156.61 -65.68,31.74 -165.17,-102.2 -166.86,-224.64 -255.58,-563.46 -561.04,-672.39 -111.33,-39.69 -429.12,-27.22 -542.41,16.76 -18.64,154.93 261.08,460.42 392.66,538.14 267.9,158.22 605.58,13.72 730.98,205.99 -64.54,89.55 -100.77,92.23 -165.47,194.84 -273.22,433.26 36.53,591.11 58.72,846.56 -129.09,-105.02 -195.57,-309.29 -450.9,-454.95 -5.43,-131.94 58.79,-343.04 -129.46,-315.6 -35.62,85.86 35.87,154.83 49.16,236.53 -194.52,-95.23 -71.65,-320.69 -255.65,-383.35 -73.29,61.93 -3.12,141.85 41.09,229.24 -61.28,-30.01 -6.36,-0.8 -42.91,-26.69l-64.79 -53.79c-33.05,-27.55 -51.96,-43.12 -82.97,-70.78 -55.38,-49.45 -112.15,-101 -174.21,-48.14 23.85,69.02 113.95,107.7 199.22,142.58 -70.89,27.25 -66.76,3.97 -93.38,68.99 60.25,55.43 286.64,22.69 460.89,188.43 -88.87,-17.81 -131.3,-58.06 -213.35,-39.01 6.84,183.21 170.85,76.58 298.68,115.79 185.1,56.75 462.88,470.1 512.63,652.92 -174.19,-90.34 -127.14,-91.07 -398.95,-211.26 -125.21,-55.38 -286.19,-184.19 -427.12,-180.35 -224.04,6.09 -633.59,370.56 -609.21,600.93 96.99,4.91 154.45,-52.27 280.66,-60.02 108.54,-6.66 218.67,13.38 328.07,17.24 340.99,12.06 205.4,-164.61 414.19,-267.2 156.16,-76.74 329.73,64.49 434.93,179.58 56.97,62.33 154.63,369.1 178.53,488.66 -275.07,-95.28 -368.1,-323.44 -684.86,-161.84 -134.3,68.52 -230.03,99.82 -297.32,203.52 -48.57,74.86 -144.99,260.35 -114.74,350.09 93.07,15.11 301.02,17.4 395.27,5.72 137.5,-17.04 182.03,-82.34 253.15,-149.9 139,-132.07 323.35,-384.52 468.81,-165.47 178.72,269.2 -199.47,1164.89 -75.58,1356.96 90.34,-22.2 77.57,-46.32 85.85,-153.54l57.99 -575.02c138.37,-1087.54 451.4,-451.86 547.83,-360.15 98.91,94.09 264.13,92.28 431.26,102.22 1.59,-193.32 -175.56,-407.28 -334.41,-488.39 -108.72,-55.5 -223.04,-58.54 -331.6,-2.61 -88.01,45.32 -160.43,130.71 -220.99,189.39 44.07,-253.36 167.36,-454.69 308.79,-581.09 377.42,-337.25 391.16,79.19 523.94,66.79l7.43 -73.1c-15.89,-63.88 -77.74,-89.3 -119.65,-126.08 58.66,-22.25 81.85,15.29 109.77,56.93 48.78,72.74 30.28,88.41 96.12,117.17 60.33,-79.46 -18.43,-109.36 -56.9,-174.58 177.85,45.88 137.84,193.56 287.95,193.5 -2.91,-117.42 -15.4,-38.66 -39.19,-108.54 -13.42,-39.51 94.34,-86.25 -234.52,-123.19 51.52,-43.25 127.83,-12.74 159.31,-120.83 -102.02,-36.16 -232.08,67.97 -374.31,87.35l122.24 -83.25c37.75,-31.26 59.47,-57.5 68.86,-107.46 -124.08,-37.39 -185.96,81.51 -249.2,139.35 -64.75,59.2 -133.44,95.27 -224.63,159.86 -170.1,120.53 -253.52,199 -355.17,418.68 -2.16,-136.5 34.92,-318.87 39.53,-474.23 5.04,-169.9 -23.08,-369.58 -9.99,-525.99 373.62,-101.66 307.99,67.29 467.3,175.15 95.8,64.88 203.45,10.83 321.33,5.65 160.6,-7.04 176.83,17.92 308.61,39.55 -6.45,-136.64 -270.9,-440.78 -396.02,-492.46 -259.13,-107.04 -469.76,117.03 -629.12,179.58 95.91,-183.03 563.53,-666.85 814.12,-575.05 104.45,38.28 204.31,145.98 324.62,135.09 27.88,-159.31 -108.63,-165.06 -206.75,-224.17 168.77,-11.25 304.88,159.22 451.09,120.47 19.46,-91.89 -7.54,-105.97 -86.58,-130.12 -40.98,-12.51 -56.47,-11.56 -99.54,-17.15 -20.58,-2.68 -32.74,-3.18 -53.22,-7.29l-45.96 -14.81c178.6,-30.28 559.72,40.25 589.16,-25.69 4.34,-141.38 -271.53,-62.17 -378.98,-47.66 76.25,-65.04 96.39,-21.58 102.22,-137.44 -102.91,-30.81 -162.72,21.44 -236.37,75.65 -82.03,60.35 -78.28,98.43 -212.69,121.98l125.81 -113.49c35.57,-42.75 50.22,-84.53 40.59,-145.26 -154.22,-36.64 -197.31,66.97 -255.26,182.23 -124.65,247.96 -392.02,154.14 -785.2,585.48 31.66,-300.04 354.27,-424.51 525.82,-595.4 120.62,-120.18 150.49,-175.58 132.87,-399.8 -15.04,-191.07 54.12,-385.88 41.03,-488.91 -170.87,-7.56 -579.2,431.03 -655.89,656.61 -94.91,279.14 35.46,401.19 -16.11,618.93 -17.56,74.17 -166.29,398.3 -200.91,441.46 -36.62,-169.97 -162.9,-954.03 -145.29,-1129.02 57.33,-569.94 509.94,-256.51 714.8,-560.05 79.35,-117.58 144.39,-291.98 233.94,-401.72 269.33,-330.09 -607.31,57.68 -691.75,136.62 -74.56,69.69 -141.71,215.53 -162.1,352.9 -18.95,127.47 -59.68,278.24 -131.87,384.26 -22.24,-176.65 -63.33,-355.74 -86.66,-529.8 -28.44,-212.15 201.31,-307.86 98.95,-449.36 -109.99,-15.79 -98.31,77.1 -144.27,145.98 -35.57,-113.04 -1.3,-132.57 18.04,-236.69z"/>
   <path class="fil3" d="M3563.06 3453.07c70.12,-37.71 136.75,-88.21 195.98,-130.6 66.81,-47.79 126.62,-87.59 118.38,-207.11 -71.81,-158.13 -762.04,45.64 -898.47,99.25 -300.04,117.89 -254.06,357.92 -597.56,493.7 9.49,-142.16 188.46,-963.21 288.95,-1010.96 131.51,-22.25 316.06,124.51 608.95,84.19 179.61,-24.74 427.12,-94.64 430.52,-287.57 -87.59,-45.64 -155.08,-55.34 -277.75,-72.49l356.31 -454.7c349.31,-499.69 255.54,-806.62 -269.44,-384.95 -194.69,156.36 -353.18,299.88 -489.21,511.42 -68.96,107.29 -51.47,127.87 -69.03,252.7 -19.7,140.03 -201.93,312.38 -336.64,334.71 3.32,-208.51 -8.52,-422.78 -3.68,-624.32 4.61,-192.2 170.3,-237.16 282.02,-340.04 100.41,-92.51 179.42,-204.61 236.69,-379.51 223.88,-683.7 -130.85,-622.07 -376.26,-106.67 -138.89,291.7 -72.44,330.29 -129.62,485.61 -6.88,18.65 -19.56,51.61 -27.47,68.58l-39.87 68.03c-35.1,-454.65 277.96,-626.02 155.56,-1155.93 -65.88,-285.23 -391.91,-905.81 -561.1,-375.76 -110.04,344.75 -83.04,824.62 66.26,1138.99 136.55,287.55 440.8,517.14 362.47,958.75 -125.28,-19.4 -151.14,-167.28 -223.94,-289.04 -116.44,-194.7 -324.37,-386.82 -517.31,-502.74 -323.87,-194.59 -531.18,-108.45 -244.29,302.02 57.07,81.62 166.56,222.1 223.46,276.92 231.56,223.08 386.21,213.36 761.92,254.63 16.65,227.85 -169.61,801.53 -233.98,1052.19 -186.53,-169.86 -181.87,-138.44 -123.44,-429.37 32.21,-160.43 5.32,-441.04 -141.16,-496.43 -111.22,72.8 -106.04,181.1 -114.7,321.03 -90.5,-111.29 -21.26,-189.23 -297.68,-418.67 -90.55,-75.17 -362.33,-251.88 -515.19,-168.67 -172.76,140.75 340.95,599.87 420.76,686.5 230.66,250.36 521.98,223.44 679.27,476.28 -143.37,-93.28 -237.75,-210.86 -441.04,-271.78 -162.33,-48.66 -477.66,-113.04 -590.31,1.66 2.68,158.29 276.3,281.66 443.68,338.25 460.89,155.86 451.26,-68.95 656.98,-2.25 20.9,80.23 -135.16,795.17 126.57,1409.3 30.08,70.58 77.19,116.72 131.71,60.47 52.89,-81.75 -48.68,-169.44 -91.07,-273.48 -82.51,-202.59 -126.26,-406.29 -138.41,-628.93 -3.5,-64.02 -3.39,-129.92 -1.23,-193.98 4.05,-119.92 21.15,-262.61 163.54,-124.74 235.89,228.44 418.42,237.03 743.29,187.41 123.49,-18.87 193.86,-40.25 205.13,-162.88 -116.22,-127.85 -209.54,-100.3 -361.52,-168.19 44.3,-34.92 355.54,-148.41 452.95,-200.82z"/>
   <path class="fil4" d="M5069.99 1938.72c24.24,-144.96 140.98,-370.38 208.64,-496.52 86.07,-160.5 208.11,-270.69 314.29,-397.45 122,-145.66 660.98,-515.44 449.43,-871.25 -109.41,-184.01 -332.39,-185.87 -456.84,-20.67 -354.15,470.16 -187.7,1044.28 -514.96,1595.26 51.75,-349.8 240.68,-543.43 78.67,-971 -183.49,-484.18 -559.38,-419.51 -592.16,-107.75 -34.77,330.71 209.23,595.45 307.26,854.6 213.88,565.38 40.03,691.68 56.5,923.73 -63.69,-116.7 -5.27,-1006.01 -518.93,-1269.06 -180.17,-92.28 -331.01,12.95 -387.57,133.57 -172.6,368.1 235.33,582.97 427.39,711.19 199.79,133.39 455.81,369.25 474.37,711.91l-66.49 -81.8c-228.28,-330.67 -523.7,-370.65 -705.18,-276.29 -205.76,82.17 -307.26,323.93 -121.34,404.22 134.73,196.93 547.38,196.36 877.96,571.17 84.32,95.62 131.71,210.18 239.79,298.75 119.7,98.09 137.55,125.78 172.4,365.44 -172.76,-168.15 -246.64,-431.93 -601.29,-475.37 -483.18,-59.13 -503.09,452.7 -188.03,451.45 178.14,-0.68 276.57,-75.69 498.36,-28.97 70.85,14.93 133.33,40.73 195.02,72.74 69.76,36.21 111.65,48.29 126.28,143.37 85.19,553.46 -114.32,821.23 28.34,945.12 308.23,-128.42 -63.4,-939.18 122.6,-1081.51 92.16,-70.52 240.57,-38.22 370.04,-72.84 266.87,-71.38 230.39,-507.06 -71.81,-418.35 -226.35,66.42 -263.4,270.67 -382.34,492.89 -46.13,-74.56 -73.73,-262.65 -48.52,-366.38 84.03,-345.43 631.16,-288.64 668.89,-662.78 41.89,-415.33 -757.46,-303.45 -781.99,538.63 -51.11,-83.55 -158,-296.09 -135.53,-412.19 27.26,-140.84 131.76,-271.39 224.64,-333.21 228.03,-151.72 524.42,-260.92 625.39,-508.88 187.46,-460.32 -380.85,-392.81 -608.03,-204.54 -223.38,185.15 -318.44,410.99 -332.01,792.11 -67.24,-145.41 -59.88,-410.74 -38.39,-588.72 13.88,-115.01 35.47,-151.69 109.15,-214 61.57,-52.02 117.02,-76.94 226.06,-102.59 960.19,-225.9 967.82,-873.14 723.46,-964.91 -402.2,-151.07 -828.93,664.37 -973.51,920.87z"/>
   <path class="fil5" d="M4253.4 1304.38c-34.34,71.08 -41.98,98.36 -117.8,120.4 -10.98,-138.34 63.33,-238.82 8.01,-346.59 -100.68,-3.16 -119.55,44.48 -127.43,151.52 -17.04,231.53 176.5,406.49 -47.84,576.94 -46.98,-164.11 -213.58,-669.6 -169.47,-821.09 64.92,-223.04 466.26,-298.82 366.3,-585.59 -375.69,-111.36 -329.73,380.28 -439.41,439.02 -54.27,-253.02 190.8,-673.85 -64.47,-825.28 -128.83,12.47 -38.18,34.76 -112.59,34.51 -68.3,-0.23 -110.81,-51.37 -153.24,34.96 -95.46,194.22 255.65,587.81 277.12,813.49 -201.18,-50.44 -222.72,-318.74 -440.18,-374.96 -254.88,-65.91 -268.85,250.15 14.38,393.52 239.37,121.17 421.83,15.74 510.67,276.92 62.66,184.25 134.89,422.46 170.72,621.82 -110.45,-34.6 -199.89,-140.27 -284.07,-200.59 -251.06,-179.87 -119.31,-720.55 -340.11,-529.34 -105.23,91.12 37.96,247.27 50.29,359.19 -122.21,-20.96 -141.68,-88.21 -197.84,-168.94 -319.03,-458.81 -636.91,-260.22 -435.82,-26.12 202.68,235.94 826.21,206.18 953.15,476.96 -144.34,39.48 -397.18,1.04 -282.74,196.93 175.47,46.83 172.45,-100.04 327.97,-161.38 105.83,18.81 224.6,103.91 249.56,220.99 21.61,101.13 58.82,289.86 46.07,394.13l-189.21 -96.16c-2.68,-105.54 76.26,-425.46 -103.5,-394.89 -181.91,30.94 24.01,311.11 43.62,371.47 -91.25,-25.1 -188.82,-68.24 -272.1,-107.52 -251.11,-118.42 -171.01,-590.27 -489.34,-551.9 -118.4,221.56 233.39,399.68 297.56,541.46 -273.64,-0.48 -629.39,-400.48 -927.06,-349.02 -220.87,38.18 -83.05,295 79.28,322.83 156.68,26.87 496.67,-36.78 603.13,26.92 -53.52,115.31 -389.8,49 -392.34,285.1 188.28,188.53 392.54,-120.11 487.03,-183.42 149.77,-100.33 516.96,-16.76 597.88,90.12 -59.2,192.75 -358.4,190.68 -303.33,482.86 127.67,59.93 211.33,29.99 260.24,-114.28 29.19,-86.09 87.87,-275.03 100.39,-342.61 85.64,8.32 171.78,43.59 226.59,95.98 15.02,359.79 -22.81,618.32 -61.47,959.56 -272.21,-69.66 -381.05,-126.42 -491.07,-346.48 -85.13,-170.28 -170.86,-457.81 -380.12,-395.91 -43.22,215.43 329.49,477.69 415.94,591.82 -284.91,35.05 -394.24,-121.51 -497.58,-292.43 -64.79,-107.18 -207.84,-457.47 -336.28,-411.13 -108.52,154 195.32,346.18 217.54,470.06 -300.64,32.64 -276.44,-509.42 -622.14,-452.97 -97.37,15.88 -153.71,119.1 -128.89,224.64 66.65,283.69 717.71,253.11 1001.96,424.69 -58.36,24.8 -161.76,28.12 -242.34,61.61 -463.69,192.7 -217.22,477.39 -33.01,392.16 227.92,-105.47 212.86,-538.84 781.8,-309.65 -48.96,109.48 -245.28,224.21 -353.61,313.59 -64.06,52.81 -258.74,290.3 -142.95,433.22 157.9,72.9 238.73,-82.62 270.28,-208.84 30.13,-120.44 44.17,-295.11 144.84,-339.2 10.39,138.96 -119.46,138.39 -76.15,283.84 50.3,62.04 92.98,72.72 162.42,39.41 179.05,-118.33 -93.52,-322.28 71.01,-474.44 79.08,-32.98 149.54,20.58 218.87,44.84 6.81,388.04 -464.1,1618.56 -454.65,1682.39 110.13,-15.88 95.98,-80.96 131.3,-174.44 135.37,-358.18 239.91,-713.49 314.95,-1090.4 25.08,-126.01 24.63,-366.26 125.44,-431.41 354.84,-229.35 362.81,401.38 461.02,587 90.12,170.3 327.57,84.76 225.62,-127.9 -70.85,-147.82 -229.14,-199.18 -249.63,-312.95 179.01,77.06 346.02,359.63 560.49,314.42 76.76,-220.72 -309.84,-301.86 -527.53,-420.24 -70.95,-38.57 -153.65,-54.27 -165.29,-140.89 50.04,-32.15 224.08,-80.22 288.12,-81.28 96.91,-1.64 167.69,87.23 214.04,135.68 68.76,71.88 270.08,340.53 447.08,144.17 44.18,-117.54 -62.63,-204.9 -177.66,-226.92 -92.59,-17.72 -249.13,-24.04 -290.55,-106.27 129.31,-47.56 379.98,25.1 521.89,34.12 525.03,33.33 461.04,-555.56 -303.49,-199.23 -209.49,97.64 -358.47,156.89 -605.56,202.25 38.35,-75.95 65.45,-74.74 131.05,-118.74 98.84,-66.34 318.86,-240.87 325.42,-356.73 -208.47,-210.45 -374.73,108.84 -459.74,241.98 -120.33,188.5 -187.25,362.49 -437.54,393.25 55.13,-527.65 35,-490.09 52,-966.25 118.63,-83.03 250.61,-86.16 331.15,19.24 48.09,110.77 -74.88,165.1 7.74,245.05 65.35,65.9 130.25,6.84 144.48,-57.66 22.1,-100.23 -32.78,-111.33 -41.05,-204.84 111.2,32.78 142.11,336.51 348.13,210.89 58.56,-276.33 -274.47,-205.27 -423.51,-311.08 204.73,-12.27 399.38,25.44 564.49,95.82 725.55,309.17 490.82,-446.77 -291.3,-230.26 -39.02,10.82 -80.19,28.55 -119.28,39.73l-116.1 0.8c55.75,-120.54 399.3,-289.91 216.42,-557.15 -208.15,-19.08 -224.4,221.42 -267.12,403.95 -49,209.37 -161.38,214.28 -362.9,284.87 -16.81,-119.2 -28.24,-219.47 -52.13,-338.27 -26.74,-132.94 -52.39,-187.3 47.91,-254.75 137.89,-92.71 510.67,139.3 483.27,-178.87 -179.73,-18.17 -314.85,88.16 -413.21,88.32 -10.61,-127.05 219.87,-249.09 339.05,-326.48 312.72,-203.09 129.35,-779.59 -143.73,-240.09 -28.87,57.07 -48.59,111.27 -78.17,172.44z"/>
  </g>
 </g>
</svg>
