<?xml version="1.0" encoding="UTF-8"?>
<!DOCTYPE svg PUBLIC "-//W3C//DTD SVG 1.1//EN" "http://www.w3.org/Graphics/SVG/1.1/DTD/svg11.dtd">
<!-- Creator: CorelDRAW 2021 (64-Bit Not for commercial use) -->
<svg xmlns="http://www.w3.org/2000/svg" xml:space="preserve" width="55.3264mm" height="51.9881mm" version="1.1" style="shape-rendering:geometricPrecision; text-rendering:geometricPrecision; image-rendering:optimizeQuality; fill-rule:evenodd; clip-rule:evenodd"
viewBox="0 0 4264.01 4006.72"
 xmlns:xlink="http://www.w3.org/1999/xlink"
 xmlns:xodm="http://www.corel.com/coreldraw/odm/2003">
 <defs>
  <style type="text/css">
   <![CDATA[
    .fil1 {fill:#325939;fill-rule:nonzero}
    .fil0 {fill:#5DBA51;fill-rule:nonzero}
   ]]>
  </style>
 </defs>
 <g id="Layer_x0020_1">
  <metadata id="CorelCorpID_0Corel-Layer"/>
  <path class="fil0" d="M2125.85 1580.11c115.37,10.82 256,10.82 421.86,10.82 338.93,0 612.96,-3.61 829.3,-10.82l0 147.84 -21.63 0c-270.43,0 -342.54,75.72 -342.54,310.08l0 641.81c61.29,-3.61 122.59,-3.61 176.68,-3.61 728.34,0 1074.49,212.74 1074.49,681.48 0,465.13 -364.17,645.41 -1124.97,645.41 -263.21,0 -468.73,-7.21 -620.17,-7.21 -111.77,0 -245.18,0 -393.01,10.81l0 -140.62c266.82,-18.03 317.3,-72.11 317.3,-295.66l0 -1550.43c0,-212.73 -64.91,-274.03 -317.3,-292.06l0 -147.84zm886.99 1276.41l0 876.17c0,79.33 46.87,97.35 191.1,97.35 288.46,0 443.5,-158.65 443.5,-461.53 0,-367.78 -155.04,-515.61 -537.25,-515.61 -32.45,0 -64.9,0 -97.35,3.61z"/>
  <path class="fil0" d="M2138.15 2426.61c-115.37,-10.82 -256,-10.82 -421.86,-10.82 -338.93,0 -612.96,3.61 -829.3,10.82l0 -147.84 21.63 0c270.43,0 342.54,-75.72 342.54,-310.08l0 -641.81c-61.29,3.61 -122.59,3.61 -176.68,3.61 -728.34,0 -1074.49,-212.74 -1074.49,-681.48 0,-465.13 364.17,-645.41 1124.97,-645.41 263.21,0 468.73,7.21 620.17,7.21 111.77,0 245.18,0 393.01,-10.81l0 140.62c-266.82,18.03 -317.3,72.11 -317.3,295.66l0 1550.43c0,212.73 64.91,274.03 317.3,292.06l0 147.84zm-886.99 -1276.41l0 -876.17c0,-79.33 -46.87,-97.35 -191.1,-97.35 -288.46,0 -443.5,158.65 -443.5,461.53 0,367.78 155.04,515.61 537.25,515.61 32.45,0 64.9,0 97.35,-3.61z"/>
  <path class="fil0" d="M2138.15 1580.11c-115.37,10.82 -256,10.82 -421.86,10.82 -338.93,0 -612.96,-3.61 -829.3,-10.82l0 147.84 21.63 0c270.43,0 342.54,75.72 342.54,310.08l0 641.81c-61.29,-3.61 -122.59,-3.61 -176.68,-3.61 -728.34,0 -1074.49,212.74 -1074.49,681.48 0,465.13 364.17,645.41 1124.97,645.41 263.21,0 468.73,-7.21 620.17,-7.21 111.77,0 245.18,0 393.01,10.81l0 -140.62c-266.82,-18.03 -317.3,-72.11 -317.3,-295.66l0 -1550.43c0,-212.73 64.91,-274.03 317.3,-292.06l0 -147.84zm-886.99 1276.41l0 876.17c0,79.33 -46.87,97.35 -191.1,97.35 -288.46,0 -443.5,-158.65 -443.5,-461.53 0,-367.78 155.04,-515.61 537.25,-515.61 32.45,0 64.9,0 97.35,3.61z"/>
  <path class="fil1" d="M2125.85 2426.61c115.37,-10.82 256,-10.82 421.86,-10.82 338.93,0 612.96,3.61 829.3,10.82l0 -147.84 -21.63 0c-270.43,0 -342.54,-75.72 -342.54,-310.08l0 -641.81c61.29,3.61 122.59,3.61 176.68,3.61 728.34,0 1074.49,-212.74 1074.49,-681.48 0,-465.13 -364.17,-645.41 -1124.97,-645.41 -263.21,0 -468.73,7.21 -620.17,7.21 -111.77,0 -245.18,0 -393.01,-10.81l0 140.62c266.82,18.03 317.3,72.11 317.3,295.66l0 1550.43c0,212.73 -64.91,274.03 -317.3,292.06l0 147.84zm886.99 -1276.41l0 -876.17c0,-79.33 46.87,-97.35 191.1,-97.35 288.46,0 443.5,158.65 443.5,461.53 0,367.78 -155.04,515.61 -537.25,515.61 -32.45,0 -64.9,0 -97.35,-3.61z"/>
 </g>
</svg>
